<?xml version="1.0" standalone="no"?>
<!DOCTYPE svg PUBLIC "-//W3C//DTD SVG 20010904//EN"
 "http://www.w3.org/TR/2001/REC-SVG-20010904/DTD/svg10.dtd">
<svg version="1.0" xmlns="http://www.w3.org/2000/svg"
 width="250.000000pt" height="250.000000pt" viewBox="0 0 250.000000 250.000000"
 preserveAspectRatio="xMidYMid meet">
<metadata>
Created by potrace 1.11, written by Peter Selinger 2001-2013
</metadata>
<g transform="translate(0.000000,250.000000) scale(0.100000,-0.100000)"
fill="#000000" stroke="none">
<path d="M0 2055 l0 -445 333 -2 332 -3 2 -210 2 -210 583 0 583 0 2 210 2
210 330 3 331 2 0 445 0 445 -1250 0 -1250 0 0 -445z"/>
<path d="M0 675 l0 -675 1250 0 1250 0 0 675 0 675 -250 0 -250 0 0 -210 0
-210 -755 0 -755 0 0 210 0 210 -245 0 -245 0 0 -675z"/>
</g>
</svg>
